<?xml version="1.0" encoding="UTF-8" standalone="no"?>
<svg
   xmlns:dc="http://purl.org/dc/elements/1.1/"
   xmlns:cc="http://creativecommons.org/ns#"
   xmlns:rdf="http://www.w3.org/1999/02/22-rdf-syntax-ns#"
   xmlns:svg="http://www.w3.org/2000/svg"
   xmlns="http://www.w3.org/2000/svg"
   xmlns:sodipodi="http://sodipodi.sourceforge.net/DTD/sodipodi-0.dtd"
   xmlns:inkscape="http://www.inkscape.org/namespaces/inkscape"
   inkscape:version="1.0 (4035a4fb49, 2020-05-01)"
   sodipodi:docname="favico.svg"
   id="svg8"
   version="1.1"
   viewBox="0 0 15.715957 15.674421"
   height="15.674421mm"
   width="15.715957mm">
  <defs
     id="defs2">
    <rect
       id="rect843"
       height="27.970238"
       width="7.1815476"
       y="161.7738"
       x="78.997025" />
  </defs>
  <sodipodi:namedview
     inkscape:window-maximized="1"
     inkscape:window-y="-8"
     inkscape:window-x="1912"
     inkscape:window-height="1017"
     inkscape:window-width="1920"
     showgrid="false"
     inkscape:document-rotation="0"
     inkscape:current-layer="layer1"
     inkscape:document-units="mm"
     inkscape:cy="56.26862"
     inkscape:cx="438.76222"
     inkscape:zoom="1.4"
     inkscape:pageshadow="2"
     inkscape:pageopacity="0.0"
     borderopacity="1.0"
     bordercolor="#666666"
     pagecolor="#ffffff"
     id="base"
     fit-margin-top="1"
     fit-margin-left="1"
     fit-margin-right="1"
     fit-margin-bottom="1" />
  <metadata
     id="metadata5">
    <rdf:RDF>
      <cc:Work
         rdf:about="">
        <dc:format>image/svg+xml</dc:format>
        <dc:type
           rdf:resource="http://purl.org/dc/dcmitype/StillImage" />
        <dc:title></dc:title>
      </cc:Work>
    </rdf:RDF>
  </metadata>
  <g
     id="layer1"
     inkscape:groupmode="layer"
     inkscape:label="Layer 1"
     transform="translate(-55.51724,-46.906559)">
    <g
       style="font-style:normal;font-weight:normal;font-size:10.5833px;line-height:1.25;font-family:sans-serif;fill:#000000;fill-opacity:1;stroke:none;stroke-width:0.264583"
       id="text864"
       aria-label="(_)">
      <path
         id="path882"
         style="font-style:normal;font-variant:normal;font-weight:500;font-stretch:normal;font-family:Inconsolata;-inkscape-font-specification:'Inconsolata Medium';fill:#005caa;fill-opacity:1"
         d="m 59.469981,61.580981 q -0.920747,-0.423332 -1.587495,-1.111247 -0.666748,-0.698498 -1.015997,-1.566328 -0.349249,-0.878414 -0.349249,-1.820328 0,-0.941913 0.349249,-1.788577 0.349249,-0.857248 0.99483,-1.523995 0.645582,-0.677332 1.545162,-1.09008 l 0.232833,0.761997 q -0.507999,0.275166 -0.920747,0.666748 -0.412749,0.380999 -0.709082,0.857247 -0.296332,0.465666 -0.455081,1.015997 -0.15875,0.539748 -0.15875,1.132413 0,0.592665 0.15875,1.142997 0.169332,0.550331 0.465665,1.037163 0.306915,0.486832 0.730247,0.878414 0.423332,0.391582 0.963081,0.666748 z" />
      <path
         id="path884"
         style="fill:#59b2ff;fill-opacity:1"
         d="m 60.951643,61.316398 v -0.645581 h 4.561402 v 0.645581 z" />
      <path
         id="path886"
         style="font-style:normal;font-variant:normal;font-weight:500;font-stretch:normal;font-family:Inconsolata;-inkscape-font-specification:'Inconsolata Medium';fill:#005caa;fill-opacity:1"
         d="M 67.280456,61.580981 67.03704,60.84015 q 0.539748,-0.275166 0.96308,-0.666748 0.423332,-0.391582 0.719665,-0.878414 0.306915,-0.486832 0.465665,-1.037163 0.169333,-0.550332 0.169333,-1.142997 0,-0.592665 -0.15875,-1.132413 -0.158749,-0.550331 -0.455082,-1.015997 -0.296332,-0.476248 -0.709081,-0.857247 -0.412748,-0.391582 -0.920747,-0.666748 l 0.232833,-0.761997 q 0.89958,0.412748 1.545162,1.09008 0.645581,0.666747 0.99483,1.523995 0.349249,0.846664 0.349249,1.788577 0,0.941914 -0.349249,1.820328 -0.349249,0.86783 -1.015997,1.566328 -0.666748,0.687915 -1.587495,1.111247 z" />
    </g>
    <text
       id="text947"
       y="60.476192"
       x="98.651787"
       style="font-style:normal;font-weight:normal;font-size:10.5833px;line-height:1.25;font-family:sans-serif;fill:#000000;fill-opacity:1;stroke:none;stroke-width:0.264583"
       xml:space="preserve"><tspan
         style="font-style:normal;font-variant:normal;font-weight:500;font-stretch:normal;font-family:Inconsolata;-inkscape-font-specification:'Inconsolata Medium';stroke-width:0.264583"
         y="60.476192"
         x="98.651787"
         id="tspan945"
         sodipodi:role="line" /></text>
    <g
       transform="translate(-32.778875)"
       style="font-style:normal;font-weight:normal;font-size:10.5833px;line-height:1.25;font-family:sans-serif;fill:#59b3ff;fill-opacity:1;stroke:none;stroke-width:0.264583"
       id="text857-7"
       aria-label="-">
      <path
         id="path865"
         style="font-style:normal;font-variant:normal;font-weight:500;font-stretch:extra-expanded;font-family:Inconsolata;-inkscape-font-specification:'Inconsolata Medium Extra-Expanded';fill:#59b3ff;fill-opacity:1;stroke-width:0.264583"
         d="m 93.915724,50.434462 v -0.867831 h 4.476736 v 0.867831 z" />
    </g>
    <text
       transform="translate(47.625,-0.01146404)"
       id="text835"
       y="60.476189"
       x="288.40738"
       style="font-style:normal;font-weight:normal;font-size:10.5833px;line-height:1.25;font-family:sans-serif;white-space:pre;inline-size:0;fill:#c0005f;fill-opacity:0.788235;stroke:none;stroke-width:0.264583"
       xml:space="preserve"><tspan
         style="font-style:normal;font-variant:normal;font-weight:bold;font-stretch:normal;font-family:Inconsolata;-inkscape-font-specification:'Inconsolata Bold';text-align:end;text-anchor:end;fill:#c0005f;fill-opacity:0.788235;stroke-width:0.264583"
         y="60.476189"
         x="45.735119"
         id="tspan833" /></text>
    <text
       id="text839"
       y="60.098217"
       x="89.958336"
       style="font-style:normal;font-weight:normal;font-size:10.5833px;line-height:1.25;font-family:sans-serif;fill:#000000;fill-opacity:1;stroke:none;stroke-width:0.264583"
       xml:space="preserve"><tspan
         style="stroke-width:0.264583"
         y="60.098217"
         x="89.958336"
         id="tspan837"
         sodipodi:role="line" /></text>
    <text
       style="font-style:normal;font-weight:normal;font-size:10.5833px;line-height:1.25;font-family:sans-serif;white-space:pre;shape-inside:url(#rect843);fill:#000000;fill-opacity:1;stroke:none;"
       id="text841"
       xml:space="preserve" />
    <text
       id="text849"
       y="60.476189"
       x="88.068451"
       style="font-style:normal;font-weight:normal;font-size:10.5833px;line-height:1.25;font-family:sans-serif;fill:#008ff1;fill-opacity:0;stroke:none;stroke-width:0.264583"
       xml:space="preserve"><tspan
         style="font-style:normal;font-variant:normal;font-weight:normal;font-stretch:normal;font-family:Inconsolata;-inkscape-font-specification:Inconsolata;fill:#005caa;fill-opacity:1;stroke-width:0.264583"
         y="0"
         x="0"
         id="tspan847"
         sodipodi:role="line"><tspan
           id="tspan865"
           style="font-style:normal;font-variant:normal;font-weight:500;font-stretch:normal;font-family:Inconsolata;-inkscape-font-specification:'Inconsolata Medium';fill:#005caa;fill-opacity:1" /></tspan></text>
    <g
       transform="translate(-32.778876)"
       style="font-style:normal;font-weight:normal;font-size:10.5833px;line-height:1.25;font-family:sans-serif;fill:#59b3ff;fill-opacity:1;stroke:none;stroke-width:0.264583"
       id="text857"
       aria-label="&quot;">
      <path
         id="path868"
         style="font-style:normal;font-variant:normal;font-weight:300;font-stretch:expanded;font-family:Inconsolata;-inkscape-font-specification:'Inconsolata Light Expanded';fill:#59b3ff;fill-opacity:1;stroke-width:0.264583"
         d="m 94.95818,50.546781 h 0.613831 q 0,0.634998 -0.01058,1.015996 0,0.380999 -0.02117,0.645582 -0.02117,0.253999 -0.04233,0.497415 -0.02117,0.232832 -0.04233,0.571498 H 95.08518 q -0.03175,-0.338666 -0.05292,-0.571498 -0.02117,-0.243416 -0.04233,-0.497415 -0.02117,-0.254 -0.03175,-0.634998 0,-0.391582 0,-1.02658 z m 1.777994,0 h 0.613832 q 0,0.634998 -0.01058,1.015996 0,0.380999 -0.02117,0.645582 -0.02117,0.253999 -0.04233,0.497415 -0.02117,0.232832 -0.04233,0.571498 H 96.86318 q -0.03175,-0.338666 -0.05292,-0.571498 -0.02117,-0.243416 -0.04233,-0.497415 -0.02117,-0.254 -0.03175,-0.634998 0,-0.391582 0,-1.02658 z" />
    </g>
    <g
       transform="translate(-33.060842)"
       style="font-style:normal;font-weight:normal;font-size:10.5833px;line-height:1.25;font-family:sans-serif;fill:#59b3ff;fill-opacity:1;stroke:none;stroke-width:0.264583"
       id="text925"
       aria-label="~">
      <path
         id="path871"
         style="font-style:normal;font-variant:normal;font-weight:300;font-stretch:expanded;font-family:Inconsolata;-inkscape-font-specification:'Inconsolata Light Expanded';fill:#59b3ff;fill-opacity:1;stroke-width:0.264583"
         d="m 99.579306,48.943723 q -0.306915,0 -0.560915,-0.08467 -0.253999,-0.09525 -0.476248,-0.211666 -0.222249,-0.126999 -0.444499,-0.211666 -0.222249,-0.08467 -0.476248,-0.08467 -0.349249,0 -0.592665,0.126999 -0.243416,0.116417 -0.476248,0.380999 L 96.171484,48.64739 q 0.169333,-0.211666 0.359832,-0.380999 0.201083,-0.169332 0.465665,-0.264582 0.264583,-0.09525 0.624415,-0.09525 0.306916,0 0.539748,0.09525 0.243416,0.08467 0.455082,0.211666 0.222249,0.116416 0.433915,0.211666 0.22225,0.08467 0.486832,0.08467 0.317499,0 0.550327,-0.126999 0.24342,-0.127 0.48684,-0.412749 l 0.35983,0.243416 q -0.1905,0.243416 -0.40217,0.412749 -0.20108,0.158749 -0.43391,0.243415 -0.222251,0.07408 -0.518584,0.07408 z" />
    </g>
  </g>
</svg>
